<svg xmlns="http://www.w3.org/2000/svg" id="shopping-bag" enable-background="new 0 0 66 66" viewBox="0 0 66 66">
  <path d="M58.23 55.95h-28.1l-.41 3.82c-.02.16 0 .3 0 .46h28.92c0-.15.02-.3 0-.46L58.23 55.95zM27.74 59.56l.39-3.61H7.51l-.14 1.58C7.05 61.27 10 64.5 13.76 64.5h15.63c-.03-.03-.06-.05-.08-.08C28.12 63.1 27.55 61.32 27.74 59.56zM33.98 64.5h20.41c1.65 0 3.05-.93 3.76-2.28H30.21C30.93 63.56 32.33 64.5 33.98 64.5zM30.35 53.95h27.67l-2.08-19.38H32.43L30.35 53.95zM36.77 38.84c0-.55.45-1 1-1s1 .45 1 1v2.14c0 2.99 2.43 5.41 5.41 5.41 2.99 0 5.41-2.43 5.41-5.41v-2.14c0-.55.45-1 1-1s1 .45 1 1v2.14c0 4.09-3.33 7.41-7.41 7.41s-7.41-3.33-7.41-7.41V38.84z"></path>
  <path d="M30.63,32.57h16.12L45.62,19.6h-2.71v6.41c0,0.55-0.45,1-1,1s-1-0.45-1-1V14.26c0-7.04-5.72-12.76-12.76-12.76S15.39,7.22,15.39,14.26v5.35h-4.7l-3,34.34h20.65L30.63,32.57z M14.13,50.24c-0.05,0.52-0.48,0.91-1,0.91c-0.03,0-0.06,0-0.09,0c-0.55-0.05-0.96-0.53-0.91-1.08l0.88-10.1c0.05-0.55,0.53-0.96,1.08-0.91c0.55,0.05,0.96,0.53,0.91,1.08L14.13,50.24z M15.39,35.86c-0.05,0.52-0.48,0.91-1,0.91c-0.03,0-0.06,0-0.09,0c-0.55-0.05-0.96-0.53-0.91-1.08l0.28-3.21c0.05-0.55,0.53-0.96,1.08-0.91c0.55,0.05,0.96,0.53,0.91,1.08L15.39,35.86z M19.39,26.02c0,0.55-0.45,1-1,1s-1-0.45-1-1V14.26c0-5.93,4.83-10.76,10.76-10.76c5.93,0,10.76,4.83,10.76,10.76v5.35H19.39V26.02z"></path>
</svg>
