<svg xmlns="http://www.w3.org/2000/svg" viewBox="0 0 48 48" id="dreawer">
  <g>
    <path d="M43 3v2H5V3a2.006 2.006 0 0 1 2-2h34a2.006 2.006 0 0 1 2 2ZM20.99 9l-.63-2h7.28l-.63 2h-6.02z"></path>
    <path d="M43 7v7H5V7h13.27l1.03 3.3a.987.987 0 0 0 .95.7h7.5a.987.987 0 0 0 .95-.7L29.73 7ZM5 16h38v2H5zM20.99 22l-.63-2h7.28l-.63 2h-6.02z"></path>
    <path d="M43 20v7H5v-7h13.27l1.03 3.3a.987.987 0 0 0 .95.7h7.5a.987.987 0 0 0 .95-.7l1.03-3.3ZM27.01 35h-6.02l-.63-2h7.28l-.63 2zM5 29h38v2H5z"></path>
    <path d="M29.73 33H43v7a2.006 2.006 0 0 1-2 2H7a2.006 2.006 0 0 1-2-2v-7h13.27l1.03 3.3a.987.987 0 0 0 .95.7h7.5a.987.987 0 0 0 .95-.7Z"></path>
    <path d="M11.333 40H8.667C8.299 40 8 40.447 8 41v4c0 1.103.598 2 1.333 2h1.334c.735 0 1.333-.898 1.333-2v-4c0-.553-.299-1-.667-1zm28 0h-2.666c-.369 0-.667.447-.667 1v4c0 1.103.598 2 1.333 2h1.334c.735 0 1.333-.898 1.333-2v-4c0-.553-.298-1-.667-1z"></path>
  </g>
</svg>
